<svg width="18" height="18" viewBox="0 0 18 18" fill="none" xmlns="http://www.w3.org/2000/svg">
<g clip-path="url(#clip0_611_779)">
<path d="M6.45558 9.99273C6.45417 10.0964 6.43175 10.1989 6.38963 10.2942C6.34751 10.3896 6.28651 10.476 6.21013 10.5485C6.13374 10.621 6.04348 10.6781 5.94451 10.7167C5.84554 10.7552 5.73982 10.7743 5.6334 10.773L2.58401 10.74C2.47758 10.739 2.37248 10.7176 2.27474 10.6769C2.17699 10.6362 2.08852 10.5772 2.0144 10.503C1.94028 10.4289 1.88197 10.3412 1.84281 10.245C1.80365 10.1487 1.78441 10.0458 1.7862 9.94215L1.83208 6.97167C1.83368 6.86805 1.85622 6.76568 1.8984 6.67039C1.94058 6.5751 2.00159 6.48876 2.07794 6.41631C2.15429 6.34385 2.24448 6.2867 2.34336 6.24811C2.44225 6.20952 2.54789 6.19026 2.65426 6.19141C2.76063 6.19256 2.86565 6.21411 2.96331 6.25483C3.06097 6.29555 3.14936 6.35463 3.22345 6.42872C3.29753 6.5028 3.35585 6.59043 3.39508 6.6866C3.4343 6.78277 3.45367 6.8856 3.45207 6.98922L3.43653 8.05674L9.77218 2.04415C9.9261 1.89808 10.133 1.81732 10.3475 1.81965C10.562 1.82197 10.7663 1.90718 10.9157 2.05654C11.0651 2.2059 11.1472 2.40717 11.1439 2.61607C11.1407 2.82497 11.0524 3.0244 10.8985 3.17047L4.56285 9.18306L5.66016 9.19448C5.76642 9.19576 5.8713 9.21742 5.9688 9.25824C6.0663 9.29906 6.1545 9.35823 6.22838 9.43236C6.30225 9.5065 6.36034 9.59415 6.39933 9.6903C6.43831 9.78645 6.45743 9.88922 6.45558 9.99273ZM15.6038 10.0918L15.6496 7.12134C15.6514 7.01768 15.6322 6.91477 15.593 6.81852C15.5539 6.72227 15.4956 6.63457 15.4214 6.56045C15.3473 6.48633 15.2589 6.42725 15.1611 6.38659C15.0634 6.34594 14.9583 6.32451 14.8518 6.32354L11.8024 6.2905C11.5876 6.28818 11.3803 6.36908 11.2261 6.5154C11.0719 6.66173 10.9835 6.8615 10.9803 7.07076C10.977 7.28003 11.0593 7.48165 11.2089 7.63127C11.3585 7.78088 11.5632 7.86625 11.7781 7.86857L12.8749 7.88045L6.53925 13.893C6.38533 14.0391 6.29705 14.2385 6.29382 14.4474C6.29059 14.6563 6.37269 14.8576 6.52205 15.007C6.67141 15.1563 6.87579 15.2415 7.09025 15.2439C7.3047 15.2462 7.51165 15.1654 7.66557 15.0194L14.0012 9.00677L13.9842 10.0757C13.981 10.2849 14.0632 10.4866 14.2129 10.6362C14.3625 10.7858 14.5672 10.8712 14.782 10.8735C14.9969 10.8758 15.2042 10.7949 15.3584 10.6486C15.5125 10.5023 15.601 10.3025 15.6042 10.0932L15.6038 10.0918Z" fill="#4A5DCD"/>
</g>
<defs>
<clipPath id="clip0_611_779">
<rect width="16.9904" height="17.069" fill="white" transform="matrix(1 0 -0.0261531 0.999658 0.446411 0)"/>
</clipPath>
</defs>
</svg>
